<svg width="34" height="24" viewBox="0 0 34 24" fill="none" xmlns="http://www.w3.org/2000/svg">
<path d="M8.24 13.04H5.328V15.904H3.984V13.04H1.072V11.776H3.984V8.896H5.328V11.776H8.24V13.04Z" fill="#F926A5"/>
<path fill-rule="evenodd" clip-rule="evenodd" d="M17.0059 3H13V4.7H15.6906L18.0054 15.476H18.0161V15.75H28.8842V15.5391L30.7178 7.32731L31 6.4H17.7278L17.251 4.18024L17.0059 3ZM28.8733 8.1H18.093L19.3711 14.05H27.5448L28.8733 8.1Z" fill="#F926A5"/>
<path d="M20.5241 20C21.4476 20 22.1961 19.2389 22.1961 18.3C22.1961 17.3611 21.4476 16.6 20.5241 16.6C19.6007 16.6 18.8521 17.3611 18.8521 18.3C18.8521 19.2389 19.6007 20 20.5241 20Z" fill="#F926A5"/>
<path d="M28.0482 18.3C28.0482 19.2389 27.2996 20 26.3762 20C25.4528 20 24.7042 19.2389 24.7042 18.3C24.7042 17.3611 25.4528 16.6 26.3762 16.6C27.2996 16.6 28.0482 17.3611 28.0482 18.3Z" fill="#F926A5"/>
</svg>
