<svg width="28" height="21" viewBox="0 0 28 21" fill="none" xmlns="http://www.w3.org/2000/svg">
<rect width="28" height="20" fill="#77C45D"/>
<path d="M10.8434 10.112C10.2594 10.112 9.78736 9.9 9.42736 9.476C9.06736 9.052 8.88736 8.5 8.88736 7.82C8.88736 7.14 9.06736 6.588 9.42736 6.164C9.78736 5.74 10.2594 5.528 10.8434 5.528C11.4274 5.528 11.8954 5.74 12.2474 6.164C12.6074 6.58 12.7874 7.132 12.7874 7.82C12.7874 8.508 12.6074 9.064 12.2474 9.488C11.8954 9.904 11.4274 10.112 10.8434 10.112ZM15.9074 5.6H16.8314L11.0954 14H10.1714L15.9074 5.6ZM10.8434 9.428C11.2114 9.428 11.4994 9.288 11.7074 9.008C11.9154 8.72 12.0194 8.324 12.0194 7.82C12.0194 7.316 11.9154 6.924 11.7074 6.644C11.4994 6.356 11.2114 6.212 10.8434 6.212C10.4834 6.212 10.1954 6.356 9.97936 6.644C9.77136 6.932 9.66736 7.324 9.66736 7.82C9.66736 8.316 9.77136 8.708 9.97936 8.996C10.1954 9.284 10.4834 9.428 10.8434 9.428ZM16.1594 14.072C15.5754 14.072 15.1034 13.864 14.7434 13.448C14.3914 13.024 14.2154 12.468 14.2154 11.78C14.2154 11.092 14.3914 10.54 14.7434 10.124C15.1034 9.7 15.5754 9.488 16.1594 9.488C16.7434 9.488 17.2154 9.7 17.5754 10.124C17.9354 10.548 18.1154 11.1 18.1154 11.78C18.1154 12.46 17.9354 13.012 17.5754 13.436C17.2154 13.86 16.7434 14.072 16.1594 14.072ZM16.1594 13.388C16.5194 13.388 16.8034 13.244 17.0114 12.956C17.2274 12.668 17.3354 12.276 17.3354 11.78C17.3354 11.284 17.2274 10.892 17.0114 10.604C16.8034 10.316 16.5194 10.172 16.1594 10.172C15.7914 10.172 15.5034 10.316 15.2954 10.604C15.0874 10.884 14.9834 11.276 14.9834 11.78C14.9834 12.284 15.0874 12.68 15.2954 12.968C15.5034 13.248 15.7914 13.388 16.1594 13.388Z" fill="white"/>
</svg>
